# xmcd
#
# Track frame offsets:
#	150
#	19739
#	40415
#	59587
#	77344
#	95807
#	118391
#	141473
#	161773
#	180892
#	200277
#	218725
#	234786
#
# Disc length: 3343 seconds
#
# Revision: 0
# Processed by: cddbd v1.5.2PL0 Copyright (c) Steve Scherf et al.
# Submitted via: dBpowerAMP V4.0
#
DISCID=b10d0d0d
DTITLE=Yao Si Ting - Love 2
DYEAR=2007
DGENRE=Easy Listening
TTITLE0=Scarborough Fair
TTITLE1=Starry Starry Night
TTITLE2=Angel
TTITLE3=Where's My Love
TTITLE4=I Cry
TTITLE5=Don't Cry For Me Argentina
TTITLE6=You Raise Me Up
TTITLE7=Take A Bow
TTITLE8=No Matter What
TTITLE9=How Did I Fall In Love With You
TTITLE10=Every Time
TTITLE11=Edelweiss
TTITLE12=The Sound Of Silence
EXTD=
EXTT0=
EXTT1=
EXTT2=
EXTT3=
EXTT4=
EXTT5=
EXTT6=
EXTT7=
EXTT8=
EXTT9=
EXTT10=
EXTT11=
EXTT12=
PLAYORDER=
